<svg width="22" height="19" viewBox="0 0 22 19" fill="none" xmlns="http://www.w3.org/2000/svg">
<path d="M13.5 13.75V15.875C13.5 16.4386 13.2805 16.9791 12.8898 17.3776C12.4991 17.7761 11.9692 18 11.4167 18H3.08333C2.5308 18 2.00089 17.7761 1.61019 17.3776C1.21949 16.9791 1 16.4386 1 15.875V3.125C1 2.56141 1.21949 2.02091 1.61019 1.6224C2.00089 1.22388 2.5308 1 3.08333 1H11C12.1505 1 13.5 1.95147 13.5 3.125V5.25M16.8333 13.75L21 9.5L16.8333 5.25M6.83333 9.5H20.1667" stroke="#EF4444" stroke-linecap="round" stroke-linejoin="round"/>
</svg>
