<svg width="22" height="26" viewBox="0 0 22 26" fill="none" xmlns="http://www.w3.org/2000/svg">
<path d="M14.634 20.3846V21.3077C14.634 22.287 14.2512 23.2261 13.5698 23.9185C12.8884 24.611 11.9643 25 11.0007 25C10.0371 25 9.11293 24.611 8.43156 23.9185C7.75019 23.2261 7.3674 22.287 7.3674 21.3077V20.3846M20.747 18.5056C19.2891 16.6923 18.2599 15.7692 18.2599 10.7702C18.2599 6.19231 15.9595 4.56135 14.0663 3.76923C13.8148 3.66423 13.578 3.42308 13.5014 3.16058C13.1693 2.01192 12.2383 1 11.0007 1C9.76309 1 8.8315 2.0125 8.5028 3.16173C8.42616 3.42712 8.18943 3.66423 7.93793 3.76923C6.04238 4.5625 3.74433 6.18769 3.74433 10.7702C3.74149 15.7692 2.71225 16.6923 1.2544 18.5056C0.650364 19.2567 1.17946 20.3846 2.23595 20.3846H19.7711C20.8219 20.3846 21.3476 19.2533 20.747 18.5056Z" stroke="white" stroke-linecap="round" stroke-linejoin="round"/>
</svg>
