<svg width="18" height="19" viewBox="0 0 18 19" fill="none" xmlns="http://www.w3.org/2000/svg">
<path d="M9.37126 6.87148C8.85832 6.82083 8.34226 6.92995 7.89374 7.18392C7.44522 7.43788 7.08616 7.82427 6.86572 8.29019C6.64528 8.75611 6.57424 9.27877 6.66233 9.78662C6.75041 10.2945 6.99332 10.7627 7.35778 11.1271C7.72225 11.4916 8.19046 11.7345 8.69831 11.8226C9.20616 11.9107 9.72882 11.8396 10.1947 11.6192C10.6607 11.3988 11.047 11.0397 11.301 10.5912C11.555 10.1427 11.6641 9.62661 11.6134 9.11367C11.5557 8.53866 11.3009 8.0013 10.8923 7.59266C10.4836 7.18402 9.94627 6.92924 9.37126 6.87148ZM15.3908 9.35938C15.3892 9.63112 15.3692 9.90244 15.331 10.1715L17.097 11.5566C17.1739 11.6204 17.2258 11.7093 17.2433 11.8077C17.2608 11.906 17.2429 12.0074 17.1927 12.0938L15.522 14.9844C15.4713 15.0699 15.392 15.1348 15.2981 15.1676C15.2042 15.2004 15.1017 15.199 15.0088 15.1637L13.2549 14.4574C13.1581 14.4189 13.0534 14.405 12.9499 14.4169C12.8465 14.4289 12.7477 14.4663 12.6623 14.5258C12.3946 14.7101 12.1133 14.8739 11.8209 15.0156C11.7289 15.0603 11.6494 15.127 11.5893 15.2097C11.5292 15.2924 11.4904 15.3886 11.4763 15.4898L11.2134 17.3605C11.1962 17.4593 11.1451 17.5491 11.069 17.6144C10.993 17.6797 10.8965 17.7166 10.7963 17.7188H7.45485C7.35623 17.717 7.26114 17.6818 7.18524 17.6188C7.10933 17.5558 7.05714 17.4689 7.03727 17.3723L6.77477 15.5043C6.76003 15.4019 6.72023 15.3048 6.65889 15.2215C6.59756 15.1382 6.5166 15.0714 6.42321 15.027C6.13111 14.886 5.85078 14.7218 5.58493 14.5359C5.49981 14.4767 5.40129 14.4396 5.29826 14.4279C5.19522 14.4163 5.0909 14.4304 4.9947 14.4691L3.24118 15.175C3.14825 15.2104 3.04582 15.2118 2.95193 15.1791C2.85803 15.1464 2.7787 15.0816 2.7279 14.9961L1.0572 12.1055C1.00697 12.0191 0.989017 11.9177 1.00654 11.8194C1.02407 11.721 1.07593 11.6321 1.1529 11.5684L2.64548 10.3965C2.72725 10.3316 2.79152 10.2473 2.83244 10.1512C2.87337 10.0552 2.88967 9.95043 2.87985 9.84648C2.86579 9.68359 2.8572 9.52109 2.8572 9.3582C2.8572 9.19531 2.8654 9.03516 2.87985 8.87578C2.8886 8.77247 2.8715 8.66861 2.83011 8.57355C2.78872 8.47849 2.72433 8.39523 2.64274 8.33125L1.15095 7.15937C1.07523 7.09535 1.02446 7.00672 1.00753 6.90901C0.990603 6.81131 1.0086 6.71077 1.05837 6.625L2.72907 3.73438C2.77981 3.64882 2.85912 3.58393 2.95302 3.55113C3.04692 3.51833 3.14938 3.51973 3.24235 3.55508L4.99626 4.26133C5.09298 4.29984 5.19774 4.31375 5.30116 4.30182C5.40458 4.28989 5.50342 4.25249 5.58884 4.19297C5.85651 4.00864 6.13779 3.84489 6.43024 3.70312C6.52219 3.65844 6.60171 3.5918 6.6618 3.50909C6.72189 3.42639 6.76069 3.33016 6.77477 3.22891L7.03766 1.3582C7.05493 1.25941 7.10597 1.16967 7.18207 1.10434C7.25816 1.039 7.35458 1.00212 7.45485 1H10.7963C10.8949 1.00171 10.99 1.03695 11.0659 1.09994C11.1418 1.16292 11.194 1.24988 11.2138 1.34648L11.4763 3.21445C11.4911 3.31682 11.5309 3.41396 11.5922 3.49724C11.6535 3.58052 11.7345 3.64735 11.8279 3.6918C12.12 3.8328 12.4003 3.99699 12.6662 4.18281C12.7513 4.24204 12.8498 4.27915 12.9529 4.29081C13.0559 4.30247 13.1602 4.28831 13.2564 4.24961L15.0099 3.54375C15.1029 3.50836 15.2053 3.50691 15.2992 3.53963C15.3931 3.57236 15.4724 3.63717 15.5232 3.72266L17.1939 6.61328C17.2441 6.69964 17.2621 6.80103 17.2446 6.89939C17.227 6.99775 17.1752 7.08669 17.0982 7.15039L15.6056 8.32227C15.5235 8.38697 15.4589 8.47118 15.4176 8.56724C15.3763 8.6633 15.3597 8.76815 15.3693 8.87227C15.3822 9.03398 15.3908 9.19648 15.3908 9.35938Z" stroke="white" stroke-linecap="round" stroke-linejoin="round"/>
</svg>
